<?xml version="1.0" encoding="utf-8"?>
<!-- Generator: Adobe Illustrator 25.4.1, SVG Export Plug-In . SVG Version: 6.00 Build 0)  -->
<svg version="1.1" id="Layer_1" xmlns="http://www.w3.org/2000/svg" xmlns:xlink="http://www.w3.org/1999/xlink" x="0px" y="0px"
	 viewBox="0 0 800 409.1" style="enable-background:new 0 0 800 409.1;" xml:space="preserve">
<style type="text/css">
	.st0{fill:#AD7BB3;}
	.st1{fill:#59595B;}
	.st2{fill:#722A81;}
</style>
<g>
	<path class="st0" d="M49,169.8c0-59.1,68-125.2,118.5-125.2c25,0,38.8,14.8,38.8,34.4c0,18.7-11.5,36.2-24.5,36.2
		c-4.9,0-8.9-2.3-8.9-4.4c0-0.8,0.8-1.6,2.9-3.1c8.6-5.7,20.3-20,20.3-34.1c0-10.2-6.8-17.4-20.6-17.4
		c-46.6,0-104.4,63.5-104.4,119.2c0,26.8,13.3,42.2,40.4,42.2c24.5,0,52.9-22.7,63.8-35.7c1.8-2.3,2.6-2.3,3.4-2.3
		c0.8,0,1,0.5,1,1.3c0,1-0.3,1.8-1.8,3.9c-11.2,15.9-41.7,42.2-75,42.2C72.7,226.8,49,207.8,49,169.8z"/>
	<path class="st0" d="M367.1,155.7c0,10.2-12.8,24-12.8,35.4c0,6.2,3.4,8.3,8.3,8.3c11.7,0,25.8-15.9,30.5-22.4
		c1.6-2.3,2.3-2.6,3.1-2.6c0.8,0,1.6,0.5,1.6,1.6s-1,2.3-1.8,3.6c-6.8,10.7-24.7,29.9-40.9,29.9c-10.4,0-18.5-6.8-18.5-16.7
		c0-13,14.6-30.5,14.6-35.7c0-1.8-1.3-2.9-2.9-2.9c-6.8,0-34.6,18-62.2,66.4c-1,1.8-1.8,2.3-3.1,2.3c-3.6,0-13.3-4.4-13.3-14.6
		c0-13,24.2-48.4,24.2-68.7c0-7.8-2.9-11.7-10.7-11.7c-7.3,0-13.5,2.1-18,4.2c1.8,3.9,2.6,8.3,2.6,13.5c0,30.2-37.5,74.7-63.3,74.7
		c-11.5,0-22.4-8.9-22.4-23.7c0-22.4,25.8-46.3,48.2-52.1c2.9-0.8,5.7-1,6.8-1c2.3,0,3.1,1.3,3.1,2.6c0,1.6-1.3,2.3-4.4,4.2
		c-18,9.6-35.1,33.8-35.1,51c0,7.3,2.9,11.2,8.6,11.2c17.2,0,43.7-37,43.7-64.3c0-9.9-4.9-9.6-4.9-13c0-4.7,16.7-13.3,35.1-13.3
		c17.7,0,25.5,8.3,25.5,19.8c0,14.8-8.9,37.8-16.4,55.7c19-26,46.3-53.4,62.2-53.4C360.4,144.3,367.1,148.2,367.1,155.7z"/>
	<path class="st0" d="M478,176.8c1.8-2.3,2.6-2.3,3.4-2.3c0.8,0,1,0.5,1,1.3c0,1-0.3,1.8-1.8,3.9c-10.7,14.8-39.3,40.9-65.6,40.9
		c-16.1,0-25.8-8.3-25.8-25.5c0-29.7,39.6-65.1,64.6-65.1c13.3,0,17.4,8.1,17.4,14.6c0,10.4-7.8,25-14.3,25c-2.9,0-8.3-3.1-8.3-5.5
		c0-0.8,0.5-1.6,1.8-2.9c5.2-6,11.2-14.6,11.2-20.6c0-3.4-1.6-4.7-3.9-4.7c-18,0.3-50.2,40.9-50.2,64.6c0,7.8,3.9,11.5,12.8,11.5
		C442.9,211.9,468.9,187.5,478,176.8z"/>
	<path class="st0" d="M529.6,133.1c12.5,0,16.9,5.2,16.9,12.5c0,12.8-23.7,31.5-54.4,38.3c-2.3,6-3.6,11.7-3.6,16.7
		c0,7.8,3.9,11.5,12.8,11.5c22.4,0,48.2-24.7,57.3-35.4c1.8-2.3,2.6-2.3,3.4-2.3c0.8,0,1,0.5,1,1.3c0,1-0.3,1.8-1.8,3.9
		c-10.7,14.8-39.6,41.1-65.1,41.1c-16.1,0-25.8-8.3-25.8-25.5C470.2,166.6,506.7,133.1,529.6,133.1z M533.5,139
		c-11.7,0.3-29.7,20-39.1,39.6c23.7-6.5,42.4-28.1,42.4-35.9C536.9,140.1,535.6,139,533.5,139z"/>
	<path class="st0" d="M642.6,217.9c13.8,0,37.5-27.9,45.8-40.4c1.6-2.3,2.3-2.6,3.1-2.6c0.8,0,1.6,0.5,1.6,1.6s-1,2.3-1.8,3.6
		c-12.5,20-34.9,46.9-53.6,46.9c-11.2,0-20.3-8.3-20.3-25.8c0-14.8,8.9-36.4,20.8-58.8c-4.9-1-8.1-2.9-17.2-2.9
		c-11.7,0-29.9,9.9-50.5,43.7c-13.8,22.9-14.1,34.9-19.3,34.9c-3.9,0-10.4-6-10.4-9.4c0-3.6,6.2-14.8,12.5-33.6
		c6.5-19.3,7-29.4,7-32.5c0-4.9-0.8-4.4-0.8-6c0-1,0.5-1.8,2.9-1.8c5.2,0,14.8,3.1,14.8,11.2c0,4.4-2.6,13-9.9,31.2
		c18-26.8,29.9-48.2,44-48.2c12,0,14.3,3.4,25.5,3.4c2.1,0,4.7,0,7-0.3l3.4-5.5c12-19.8,21.9-31.5,29.2-31.5
		c4.2,0,10.2,5.7,10.2,8.3c0,1.6-1.6,2.3-4.7,6.2c-5.5,6.8-10.2,13.3-14.6,19.3c5.2-0.8,10.2-1.3,14.1-1.3c7,0,10.4,1.3,10.4,2.9
		c0,1.6-2.6,3.9-3.9,3.9c-1,0-2.6-0.5-6.5-0.5c-7.8,0-14.6,2.3-20.8,4.7c-19.5,29.4-27.9,51.8-27.9,66.1
		C632.7,214,636.3,217.9,642.6,217.9z"/>
	<path class="st0" d="M755.6,146.6c0,1.8-0.8,2.6-1.8,2.6c-1.6,0-4.2-2.3-11.7-2.3c-14.8,0-34.6,7.8-34.6,26c0,16.1,18,22.1,18,37
		c0,9.6-7,16.7-18,16.7c-16.4,0-26.3-16.1-26.3-24c0-2.1,0.8-2.6,1.6-2.6s1.3,0.8,1.8,1.8c3.6,6.8,11.7,12,19,12
		c6.5,0,9.4-4.4,9.4-9.6c0-14.6-19.5-22.7-19.5-40.4c0-20,25-32.3,40.9-32.3C749.8,131.5,755.6,141.7,755.6,146.6z"/>
</g>
<g>
	<path class="st1" d="M78.6,267.1l-4.7-18.4l-4.6,18.4h-6.1l-7.7-26.7h6.4l4.7,19.3l5.1-19.3h4.4l5,19.3l4.6-19.3h6.4l-7.6,26.7
		H78.6z"/>
	<path class="st1" d="M94.9,267.1v-26.7h5.7v26.7H94.9z"/>
	<path class="st1" d="M112.1,267.1v-21.7h-7.8v-5h21.3v5h-7.8v21.7H112.1z"/>
	<path class="st1" d="M147.5,267.1v-11.2h-12.6v11.2h-5.7v-26.7h5.7v10.5h12.6v-10.5h5.7v26.7H147.5z"/>
	<path class="st1" d="M187.2,267.1l-1.6-4.5h-11.5l-1.7,4.5h-6.5l10.3-26.7h7.1l10.3,26.7H187.2z M179.8,246.1l-4.2,11.5h8.3
		L179.8,246.1z"/>
</g>
<g>
	<path class="st2" d="M196.1,296.8c0-35,26.4-58.9,60.6-58.9c25.1,0,39.6,13.6,47.6,27.8L283.5,276c-4.8-9.2-15-16.5-26.8-16.5
		c-20.6,0-35.7,15.9-35.7,37.4s15,37.4,35.7,37.4c11.8,0,22-7.2,26.8-16.6l20.8,10.1c-8.2,14.2-22.5,28-47.6,28
		C222.6,355.6,196.1,331.8,196.1,296.8z"/>
	<path class="st2" d="M396.1,353.6l-7-19.3h-48.8l-7.2,19.3h-27.6l44-113.8h30.4l43.8,113.8H396.1z M364.7,264L347,313h35.5
		L364.7,264z"/>
	<path class="st2" d="M428.7,308.2v-68.4h24.6v67.6c0,15.9,9.2,26.8,26.8,26.8c17.6,0,26.6-10.9,26.6-26.8v-67.6h24.7V308
		c0,28.3-16.7,47.6-51.4,47.6C445.4,355.6,428.7,336.2,428.7,308.2z"/>
	<path class="st2" d="M546.1,337.6l13.1-18.4c8,8.4,20.5,15.4,36.2,15.4c13.3,0,19.8-6.1,19.8-12.6c0-20.1-65.5-6.3-65.5-49.1
		c0-18.9,16.4-34.6,43.2-34.6c18.1,0,33.1,5.5,44.4,15.9l-13.5,17.7c-9.2-8.5-21.5-12.5-33.1-12.5c-10.4,0-16.2,4.6-16.2,11.4
		c0,18.1,65.3,6,65.3,48.5c0,20.8-14.8,36.5-45.6,36.5C572.3,355.6,556.7,348.3,546.1,337.6z"/>
	<path class="st2" d="M656.1,353.6V239.8h80.5v21.3h-56.3v24.1h55.1v21.3h-55.1v25.8h56.3v21.3H656.1z"/>
</g>
</svg>
