<?xml version="1.0" encoding="utf-8"?>
<!-- Generator: Adobe Illustrator 25.4.1, SVG Export Plug-In . SVG Version: 6.00 Build 0)  -->
<svg version="1.1" id="Layer_1" xmlns="http://www.w3.org/2000/svg" xmlns:xlink="http://www.w3.org/1999/xlink" x="0px" y="0px"
	 viewBox="0 0 1296 875.9" style="enable-background:new 0 0 1296 875.9;" xml:space="preserve">
<style type="text/css">
	.st0{fill:#064A64;}
	.st1{fill:#1DBCBA;}
</style>
<g id="wzXaKw_1_">
	<g>
		<path class="st0" d="M107.3,807.9c0-251,0-500.6,0-751.4c270.8,0,541.7,0,814.7,0c0,4,0,8.6,0,13.1c0,163.5,0,327-0.1,490.5
			c0,55.2-42.3,102.5-96.9,108.9c-53.8,6.3-106.5-29.6-118-83.2c-4.6-21.4-3-44.1-3.8-66.3c-0.5-13-0.1-26-0.1-39.7
			c8.4,0,15.7,0,24.5,0c0,22.2,0.6,44.3-0.2,66.4c-1.2,32.9,7.5,61.4,34.7,81.7c25.3,18.9,53.7,23.1,82.6,10.5
			c30.5-13.3,48.6-37.1,52.2-71c0.3-3,0.6-6.1,0.6-9.1c0-156.5,0-313,0-469.5c0-2.1-0.2-4.3-0.4-7.2c-254.2,0-508,0-762.6,0
			c0,233.6,0,467.1,0,701.9c154.5,0,308.5,0,463.7,0c0,8.8,0,16.3,0,24.4C434.7,807.9,271.8,807.9,107.3,807.9z"/>
		<path class="st0" d="M976.3,294c7.7,0,15.3,0,24.2,0c0,5,0,9.2,0,13.4c0,87.2,0,174.4,0,261.6c0,42.3,32,74.6,75,75.8
			c41.7,1.1,76.7-29.8,77.3-71.9c1.3-86.7,0.8-173.5,1.1-260.2c0-6,0-12,0-18.7c8.7,0,15.6,0,23.5,0c0,123.3,0,246.4,0,370.8
			c-7.1,0-14.5,0-22.7,0c-0.5-9.6-1-18.4-1.5-29.4c-20.6,20.6-43.3,32.6-70.4,33.9c-58.4,2.7-105.8-38.8-107-97.6
			c-1.8-91.1-0.5-182.2-0.5-273.3C975.1,297.1,975.8,295.9,976.3,294z"/>
	</g>
</g>
<path class="st1" d="M400.8,393.5c0,85.4,0,170.7,0,256.1c0,7.3,1.2,15.4-10.2,15.9c-9.7,0.4-16.6-0.9-14.3-13.4
	c0.7-3.9,2.3-9.6-2.1-12c-4.2-2.2-6.5,3.3-9.3,5.5c-43.1,33.3-99.5,31.3-138.1-6.8c-21.7-21.4-29.1-48.4-29.3-79.5
	c-0.4-51.8-0.5-103.6-0.3-155.4c0.1-23,1.2-46.3,13.8-67c32.7-53.6,100.7-66.4,152.2-28.6c2.9,2.2,5.4,7.4,9.6,5
	c3.6-2.1,1.9-7.2,1.9-11c0.1-55.3,0.1-110.6,0-165.9c0-8.7,0.8-15.4,12.3-15.3c9.9,0.1,14.9,3.3,13.9,13.6c-0.2,1.7,0,3.5,0,5.2
	C400.8,224.5,400.8,309,400.8,393.5z M374.6,477.8c0-30,0-60.1,0-90.1c0-8.8-0.9-17.3-4.3-25.6c-14.1-34.8-47.9-54.6-83.2-48.6
	c-36,6.2-63.6,37.9-63.9,75.3c-0.5,59.6-0.3,119.2,0,178.9c0.1,20,7.5,38.1,21.5,51.8c23.5,23,52.1,29.1,83.1,17.2
	c30.6-11.8,46.7-37.3,46.9-71.5C374.7,536.2,374.6,507,374.6,477.8z"/>
<path class="st1" d="M455.3,476.1c0-29.2-0.5-58.4,0.1-87.5c1-43.1,20.2-75.6,60.1-92.9c38.2-16.6,74.9-12.3,107.4,15.2
	c28.2,23.8,40.1,54.2,34.4,90.6c-4.1,26.2-21.8,42.2-45.2,51.6c-38.8,15.5-77.9,30.2-117.2,44.5c-9.8,3.6-14,8.3-13.5,18.8
	c0.7,15.6,0.5,31.4,0.1,47c-1.2,42.3,27.2,73.1,64.2,78.1c43.5,5.9,77.7-19.6,86.6-63c1.6-7.9,3.4-12.8,12.7-12.7
	c12.8,0.2,15.3,2.6,13.2,15.6c-7.5,45.8-41.1,80.2-84.5,86.4c-46.9,6.7-89-15.6-109.6-58.4c-6.1-12.7-8.8-26.4-8.9-40.5
	C455.2,538,455.3,507,455.3,476.1z M557.1,312.7c-36.6-0.3-71,27.6-74.3,63.8c-2.6,29.4-0.9,59.1-1,88.7c0,6.6,3,8.3,9.2,5.9
	c35.3-13.5,71.1-26.1,106-40.5c28-11.5,39-29.4,35.4-52.6C627,341.4,594.2,313.1,557.1,312.7z"/>
<g>
	<path class="st1" d="M610.7,797h9.8v-72.7h-9.8v-10.6h40.4c26.5,0,43.4,18.2,43.4,47.5c0,28.3-15.8,46.4-43.4,46.4h-40.4V797z
		 M651.1,796.2c17.6-0.1,28.4-12.7,28.4-35c0-21.5-10.5-36.3-28.4-36.2H635v71.2H651.1z"/>
	<path class="st1" d="M777.7,784v23.7h-72.1V797h9.8v-72.7h-9.8v-10.6h71.6V738h-11.4v-13.1h-35.8V754h34v11.3h-34v31.2h36.3V784
		H777.7z"/>
	<path class="st1" d="M823.7,712.4c14.8,0,24.4,5.3,31.7,12.4V745h-11.6v-14c-3.5-3.4-10.9-6.8-19.9-6.8c-10.5,0-19.1,5.2-19.1,13.5
		c0,25.9,54.4,8.8,54.4,45.6c0,16.9-15.2,25.7-35.1,25.7c-16.6,0-27.2-5.2-33.9-13.6v-18.1h11.6V789c4.6,5.3,12.7,8,22.3,8
		c11.6,0,21.1-3.9,21.1-13.7c0-23.7-54.6-8-54.6-45.5C790.7,723.5,804.2,712.4,823.7,712.4z"/>
	<path class="st1" d="M871.2,797h9.7v-72.7h-9.7v-10.6h34v10.6h-9.5V797h9.5v10.6h-34V797z"/>
	<path class="st1" d="M996.6,761.8v35.5c-8.3,7.2-21.1,11.7-36.6,11.7c-26.3,0-43.8-19.3-43.8-48.3s17.6-48.3,43.8-48.3
		c17,0,28,5.9,35.7,13.3V746h-11.6v-13.1c-4.1-4.1-12.9-8.2-24.1-8.2c-17.1,0-28.6,14.3-28.6,35.9s11.4,35.9,28.6,35.9
		c9.8,0,18.5-2.9,23.7-6.4v-17.6h-18.9v-10.9H996.6z"/>
	<path class="st1" d="M1105,713.7v10.5h-10.1v83.4h-15l-46.4-73.4v62.9h9.8v10.5h-32.8v-10.5h9.9v-72.9h-9.9v-10.5h24.1l47.4,76.3
		v-65.9h-10.5v-10.5H1105z"/>
	<path class="st1" d="M1149.7,712.4c14.8,0,24.4,5.3,31.7,12.4V745h-11.6v-14c-3.5-3.4-10.9-6.8-19.9-6.8
		c-10.5,0-19.1,5.2-19.1,13.5c0,25.9,54.4,8.8,54.4,45.6c0,16.9-15.2,25.7-35.1,25.7c-16.6,0-27.2-5.2-33.9-13.6v-18.1h11.6V789
		c4.6,5.3,12.7,8,22.3,8c11.6,0,21.1-3.9,21.1-13.7c0-23.7-54.6-8-54.6-45.5C1116.8,723.5,1130.3,712.4,1149.7,712.4z"/>
</g>
</svg>
