<?xml version="1.0" encoding="utf-8"?>
<!-- Generator: Adobe Illustrator 25.4.1, SVG Export Plug-In . SVG Version: 6.00 Build 0)  -->
<svg version="1.1" id="Layer_1" xmlns="http://www.w3.org/2000/svg" xmlns:xlink="http://www.w3.org/1999/xlink" x="0px" y="0px"
	 viewBox="0 0 250 250" style="enable-background:new 0 0 250 250;" xml:space="preserve">
<style type="text/css">
	.st0{fill:#1DBCBA;}
</style>
<g id="c7YXDV_00000163062881778859669550000004682076028658205073_">
	<g>
		<path class="st0" d="M236.9,146.6c-9.4,0-18.8,0-28.6,0c0-9.4,0-18.8,0-29c9.5,0,19.1,0,28.6,0
			C236.9,127.2,236.9,136.9,236.9,146.6z"/>
		<path class="st0" d="M155.9,195.4c-20.8,0-41.4,0-62.2,0c-1.8-17.5-7.5-31.9-26.8-36.8c0-4.2,0-8.8,0-13.5
			c7.7-3,12.5-9.4,16.8-16.1c12.3-18.9,20.1-39.9,27.6-61c1-2.9,2-4.9,5.8-3.6c0,22,0,44,0,66.2c-10.2,5.5-17.2,14.5-13.2,28.1
			c2.7,9.2,12.4,15.9,21.5,15.5c10.1-0.5,18.7-7.6,20.9-17c2.5-11-2-19.7-13.7-26.3c0-22.1,0-44.2,0-66.3c3.9-1.6,4.9,0.5,5.9,3.6
			c7.2,20.5,14.8,40.9,26.5,59.3c4.6,7.3,9.4,14.5,18,17.6c0,4.6,0,9.1,0,13.5C163.6,163.2,157.7,177.8,155.9,195.4z"/>
		<path class="st0" d="M179.8,41.6c21.7,15.4,37.2,34.8,45.3,61.1c-4.9,0-9.2,0.2-13.6-0.1c-1-0.1-2.1-1.8-2.6-3
			c-10.1-24.4-27.3-41.6-51.6-51.8c-1.4-0.6-2.9-2.6-3-4.1c-0.4-4.3-0.2-8.6-0.1-13c0-0.8,0.1-1.6,0.2-3.2c1.8,0,3.6,0,5.3,0
			c16.9,0,33.8,0.1,50.7-0.1c3.7,0,7.3-1,10.9-1.9c4.4-1,8.3-0.4,11,3.5c2.5,3.6,2.5,7.7,0,11.2c-2.7,3.8-6.6,4.5-11.1,3.4
			c-3.6-0.9-7.3-1.8-11-1.9C200.2,41.4,190,41.6,179.8,41.6z"/>
		<path class="st0" d="M95.5,27.5c0,6.1,0.2,11.4-0.1,16.7c-0.1,1.2-1.4,2.9-2.6,3.4C68.1,57.8,50.6,75.1,40.6,100
			c-0.5,1.2-2.2,2.5-3.5,2.6c-3.9,0.3-7.9,0.1-12.5,0.1C32.5,76.5,48.1,57,69.9,41.7c-12.5,0-25,0-37.6,0.1c-1,0-2,1-3.1,1.5
			c-4.2,1.8-9.2,0.7-11.7-2.6c-2.5-3.2-2.5-8.9,0-12.1c2.6-3.3,7.5-4.3,11.8-2.7c2.2,0.8,4.7,1.6,7,1.6c17.7,0.1,35.5,0.1,53.2,0.1
			C91.3,27.5,93.1,27.5,95.5,27.5z"/>
		<path class="st0" d="M81.8,210.8c28.7,0,57.3,0,86.3,0c0,6.2,0,12.2,0,18.7c-28.6,0-57.2,0-86.3,0
			C81.8,223.5,81.8,217.3,81.8,210.8z"/>
		<path class="st0" d="M139.1,20.5c0,9.7,0,18.9,0,28.4c-9.5,0-18.7,0-28.2,0c0-9.4,0-18.8,0-28.4C120.1,20.5,129.4,20.5,139.1,20.5
			z"/>
		<path class="st0" d="M41.5,146.5c-9.5,0-18.8,0-28.4,0c0-9.5,0-18.7,0-28.3c9.4,0,18.7,0,28.4,0C41.5,127.5,41.5,136.8,41.5,146.5
			z"/>
		<path class="st0" d="M132.1,152c0,3.8-3.6,7.2-7.4,7.1c-3.7-0.1-6.9-3.3-7-7c-0.1-3.7,3.4-7.4,7.1-7.4
			C128.5,144.6,132.1,148.2,132.1,152z"/>
	</g>
</g>
</svg>
