<?xml version="1.0" encoding="utf-8"?>
<!-- Generator: Adobe Illustrator 25.4.1, SVG Export Plug-In . SVG Version: 6.00 Build 0)  -->
<svg version="1.1" id="Layer_1" xmlns="http://www.w3.org/2000/svg" xmlns:xlink="http://www.w3.org/1999/xlink" x="0px" y="0px"
	 viewBox="0 0 250 250" style="enable-background:new 0 0 250 250;" xml:space="preserve">
<style type="text/css">
	.st0{fill:#1DBCBA;stroke:#1DBCBA;stroke-width:2;stroke-miterlimit:10;}
</style>
<g id="WRwGxp_00000051362156961628258030000008481982737248259732_">
	<g>
		<path class="st0" d="M121.5,113.3c3.7-3.7,7.4-7.5,11.3-11.2c1.1-1.1,1.5-2,1-3.5c-1-2.9-0.1-5.4,2.1-7.6c18-18,36-36,54-54
			c3-3,6.8-3,9.8,0c6.5,6.5,13,12.9,19.5,19.4c2.5,2.5,2.5,5.6,0,8.1c-18.4,18.4-36.8,36.8-55.1,55.1c-3.2,3.2-5.4,3.5-9.4,1.5
			c-4.2,4.3-8.5,8.6-12.7,12.7C135.1,126.9,128.4,120.2,121.5,113.3z"/>
		<path class="st0" d="M121.1,106.7c-4,4-7.7,7.7-11.6,11.6c-0.4-0.4-1.1-1-1.6-1.5c-9-9-18-18-27-27c-4.7-4.7-10.1-7.6-17-7.3
			c-5.3,0.2-9.8,2.4-13.8,5.7c-1.5,1.3-2.8,2.7-4.6,4.4c1.6,1.3,3.2,2.5,4.9,3.9c-6,4.4-11.5,8.5-16.7,12.4
			c-5.1-5.1-10.1-10.1-15.4-15.4c4-5.2,8.4-10.7,12.8-16.3c1.5,1.7,2.8,3.2,4.4,5c2.9-2.8,5.8-5.5,8.4-8.5c0.7-0.8,0.7-2.3,0.7-3.5
			c0-2.2,0.9-3.8,2.5-5.3c6.8-6.2,13.6-12.6,20.3-18.9c4.8-4.6,10.8-6.6,17.2-7.4c10.2-1.4,29.7,1.2,39.4,5.2
			c-2,2.5-3.9,4.5-7.8,4.3c-7.2-0.4-14.4,0.6-21.1,3.6c-2.5,1.1-4.9,2.5-6.9,4.2c-5.8,5-6.2,11.5-0.8,17.1
			c6.5,6.8,13.3,13.3,19.9,20C111.8,97.5,116.4,102.1,121.1,106.7z"/>
		<path class="st0" d="M133.9,150.2c6.8-6.8,13.5-13.5,20.4-20.4c3.5,3.2,7.2,6.6,10.8,10c17.1,16,34.3,31.9,51.4,47.9
			c5.2,4.8,5.2,9.6,0.2,14.6c-3.9,3.9-7.8,7.9-11.8,11.7c-3.9,3.8-9.6,3.7-13.2-0.3C172.4,192.6,153.1,171.4,133.9,150.2z"/>
		<path class="st0" d="M67.5,216.8c-9.7-9.7-19.3-19.3-29-29c0.4-0.4,0.9-1,1.4-1.5c19.6-19.6,39.2-39.2,58.9-58.8
			c0.8-0.8,2.3-1,3.5-1.5c0.1-0.1,0.3,0,0.5,0c3.3,0,7,0.9,9.9-0.3c2.9-1.1,5-4.2,7.4-6.4c0.2-0.1,0.4-0.2,0.7-0.4
			c0.3,0.3,0.7,0.6,1,0.9c5,4.9,9.9,9.8,15.2,14.9c-2.1,2-3.9,3.9-5.9,5.7c-1.3,1.1-1.7,2.3-1.6,4c0.1,3,0.1,6.1,0,9.1
			c0,0.9-0.4,2-1,2.6c-20.1,20.1-40.2,40.2-60.3,60.3C67.9,216.5,67.7,216.6,67.5,216.8z M107.6,136.2c4,4,7.6,7.5,11.5,11.4
			c-0.5,0.4-1.2,0.8-1.8,1.4c-15.1,15.1-30.2,30.2-45.3,45.3c-0.5,0.5-1.4,1.1-1.4,1.7c-0.1,3.1-0.1,6.2-0.1,9.3
			c0.2,0.1,0.4,0.1,0.6,0.2c0.5-0.6,1-1.3,1.6-1.9c15.6-15.6,31.1-31.3,46.9-46.7c3.5-3.4,5.4-6.8,4.6-11.6
			c-0.6-4.2,0.1-7.8,4.5-9.6c0.1,0,0.2-0.2,0.1-0.2c-2.8-2.8-5.6-5.7-8.7-8.7c-2.4,5.1-7.1,4.4-11.7,4.2c-1.1,0-2.3-0.2-3.4,0
			c-1.2,0.3-2.7,0.7-3.5,1.5C84.8,149.4,68,166.2,51.2,183c-0.5,0.5-1,1.1-1.8,2c2.8,0,5.2-0.1,7.6,0c1.6,0.1,2.8-0.4,4-1.6
			c15.1-15.2,30.2-30.2,45.3-45.4C106.8,137.4,107.3,136.6,107.6,136.2z M65,204.9c0.6-5.1,1-10.3-4.4-13.7
			c-0.6-0.4-1.2-1.1-1.8-1.1c-2.9-0.1-5.8-0.1-8.6-0.1C55.1,195,60,200,65,204.9z"/>
	</g>
</g>
</svg>
