<?xml version="1.0" encoding="utf-8"?>
<!-- Generator: Adobe Illustrator 25.4.1, SVG Export Plug-In . SVG Version: 6.00 Build 0)  -->
<svg version="1.1" id="Layer_1" xmlns="http://www.w3.org/2000/svg" xmlns:xlink="http://www.w3.org/1999/xlink" x="0px" y="0px"
	 viewBox="0 0 250 250" style="enable-background:new 0 0 250 250;" xml:space="preserve">
<style type="text/css">
	.st0{fill:#1DBCBA;stroke:#1DBCBA;stroke-width:2;stroke-miterlimit:10;}
</style>
<g>
	<path class="st0" d="M226.6,27.7c0-5.1-1.9-7.1-7-7.1c-50.3,0.1-100.6,0.1-151,0c-4.7,0-6.9,1.9-7.1,6.4c-0.1,3.7-0.5,7.5,0.2,11.1
		c0,0.2,0.1,0.3,0.1,0.5c1.1,3.4,6.2,3.4,7.4,0c0.1-0.2,0.1-0.3,0.2-0.5c0.7-2.6,0.2-5.5,0.2-8.8H218v57h-22.5
		c0-8.5-0.2-16.9,0.1-25.3c0.2-6.5-2.3-9.5-9-9.2c-6.5,0.3-13.1,0.1-19.6,0.1c-4.9,0-7.1,2.1-7.1,7.3c0.1,43.9,0.1,87.7,0,131.6
		c0,5.8,2.8,7.4,7.9,7.4c7.9-0.1,15.8,0,24.5,0v23.1c-4.3,0-77.2,0-85.7,0h-9.7v-23c7.2,0,14.2-0.3,21.2,0.1
		c7.5,0.5,10.8-2,10.7-10.1c-0.3-42.2-0.2-84.4,0-126.6c0-6.8-2.2-10.1-9.4-9.7c-6,0.4-12,0.2-17.9,0c-5.6-0.1-8.4,2-8.1,8
		c0.4,6.8-0.2,13.7,0.2,20.5c0.3,5.3-1.1,8.1-6.9,9.5c-10.7,2.6-21.2,6.3-31.8,9.3c-8.9,2.5-14.8,7.7-18,16.5
		c-1.6,4.4-4.8,8.2-7.2,12.1c-7.8-3.1-19.5,2.6-20.9,9.8c-0.4,1.9,1.2,4.9,2.8,6.5c10.7,11,21.7,21.8,32.5,32.8
		c3.9,4,7.3,3.8,10.7-0.3c4.1-4.8,12.4-8.1,4.9-17.4c4.5-2.8,8.2-6.1,12.5-7.6c9.6-3.3,14.8-10.1,17.4-19.4
		c6.5-23.2,15.9-45.9,11.3-71.5H120V190c-8.3,0-16,0.2-23.6-0.1c-5.7-0.2-8.4,1.5-8.2,7.7c0.4,8,0.3,16,0,23.9
		c-0.2,5.2,1.4,7.9,7.2,7.8c13.7-0.2,85.3-0.1,85.9-0.1c21.2-0.3,19.3,3.1,19.3-18.9c0-24.2,2.3-20-20.4-20.4c-3.7-0.1-7.3,0-11.6,0
		V60.5h18.8c0,8.3,0.4,16.8-0.1,25.2c-0.5,7.4,2.6,9.6,9.4,9.2c7.4-0.4,14.8-0.2,22.2-0.1c5.1,0.1,7.9-1.5,7.8-7.3
		C226.4,67.6,226.5,47.6,226.6,27.7z M46.5,167.6c-8.8-8.5-17.4-17-25.8-25.9c-1.1-1.2-0.6-4-0.8-6c1-0.2,2.1-0.5,3.2-0.7
		c9.1,9.2,18.4,18.4,27.4,27.9c1.1,1.1,0.7,3.6,1,5.5C49.7,168.1,47.4,168.5,46.5,167.6z M80.2,133.3c-1.4,3.6-4.8,7-8.1,9.2
		c-6,4-12.6,7.1-17.8,9.9c-6.4-6.1-13.1-12.5-18.6-17.8c7.2-20.6,20.8-33.1,45.2-33c-6.7,5.4-9.8,12.6-19.4,12.3
		c-5.7-0.2-9.4,5.4-8.6,11.6c0.7,5.6,4.2,9.2,10.2,9.6c6,0.3,11.2-2.9,10.9-8.4c-0.5-10.6,8-13.8,13.5-19.6
		C85.6,116.2,83.5,125,80.2,133.3z"/>
</g>
</svg>
