<?xml version="1.0" encoding="utf-8"?>
<!-- Generator: Adobe Illustrator 25.4.1, SVG Export Plug-In . SVG Version: 6.00 Build 0)  -->
<svg version="1.1" id="Layer_1" xmlns="http://www.w3.org/2000/svg" xmlns:xlink="http://www.w3.org/1999/xlink" x="0px" y="0px"
	 viewBox="0 0 250 250" style="enable-background:new 0 0 250 250;" xml:space="preserve">
<style type="text/css">
	.st0{fill:#1DBCBA;stroke:#1DBCBA;stroke-width:2;stroke-miterlimit:10;}
</style>
<g id="x3SL1s_00000145034498525521577900000017235471160618105479_">
	<g>
		<path class="st0" d="M233.9,44.7v156.9c0,9.6-7.7,17.6-17.4,17.6c-0.1,0-0.2,0-0.2,0c-61.7-0.3-123.3-0.2-185-0.2
			c-10.4,0-15.2-4.8-15.2-15.3c0-53.5,0-107,0-160.5c0-11.2,4.6-15.8,15.8-15.8c61.5,0,123,0.1,184.5-0.2c0.1,0,0.2,0,0.2,0
			C226.2,27.1,233.9,35,233.9,44.7z M29.5,62.3c0,48,0,95.7,0,143.1c64,0,127.6,0,191.1,0c0-47.9,0-95.4,0-143.1
			C156.8,62.3,93.4,62.3,29.5,62.3z M172.9,44.8c0.1-4.5-4.1-8.7-8.6-8.8c-4.5-0.1-8.7,4-8.8,8.6c-0.1,4.5,4,8.7,8.6,8.8
			C168.5,53.4,172.8,49.3,172.9,44.8z M188.3,36c-4.5-0.1-8.7,4-8.8,8.5c-0.1,4.5,4,8.7,8.5,8.8c4.5,0.1,8.7-4,8.8-8.5
			C196.9,40.3,192.8,36.1,188.3,36z M220.8,44.9c0.1-4.5-4-8.8-8.5-8.9c-4.5-0.1-8.8,3.9-8.9,8.5c-0.1,4.5,3.9,8.8,8.5,8.9
			C216.4,53.5,220.7,49.4,220.8,44.9z"/>
		<path class="st0" d="M106.9,156.3c-15.6-6.7-30.3-13-45-19.7c-1.3-0.6-2.2-3.5-2.1-5.2c0.1-2.8,0.5-7.1,2.1-7.9
			c14.5-6.8,29.3-13,45.2-19.9c0,4.6,0.3,8.3-0.2,11.9c-0.2,1.2-2.2,2.6-3.7,3.2c-9.2,3.7-18.4,7.2-28.9,11.3
			c9.3,3.7,17.2,7.4,25.5,9.9c6.4,1.9,8.3,5.3,7.3,11.4C107.1,152.5,107.1,154,106.9,156.3z"/>
		<path class="st0" d="M143.1,156.3c15.6-6.7,30.3-13,45-19.7c1.3-0.6,2.2-3.5,2.1-5.2c-0.1-2.8-0.5-7.1-2.1-7.9
			c-14.5-6.8-29.3-13-45.2-19.9c0,4.6-0.3,8.3,0.2,11.9c0.2,1.2,2.2,2.6,3.7,3.2c9.2,3.7,18.4,7.2,28.9,11.3
			c-9.3,3.7-17.2,7.4-25.5,9.9c-6.4,1.9-8.3,5.3-7.3,11.4C143,152.5,143,154,143.1,156.3z"/>
		<path class="st0" d="M134.8,94.8c1.9,1.6,2.6,4.3,2,6.8c-2.7,11.3-5.1,21.5-7.6,31.7c-2.2,8.9-4.1,18-6.7,26.8
			c-0.6,2.1-3.2,4.8-5.1,5.1c-4.6,0.6-5.1-3-4.3-6.6c2.1-9.3,4.3-18.6,6.6-27.9c2.6-10.7,5.2-21.4,7.8-32.1c0.8-3.1,2.6-5.7,6.1-4.5
			C134,94.2,134.4,94.5,134.8,94.8z"/>
	</g>
</g>
</svg>
